<svg width="60" height="60" viewBox="0 0 41 41" fill="none" xmlns="http://www.w3.org/2000/svg">
    <path d="M20.3335 40.0179C31.3792 40.0179 40.3335 31.0636 40.3335 20.0179C40.3335 8.97225 31.3792 0.0179443 20.3335 0.0179443C9.2878 0.0179443 0.333496 8.97225 0.333496 20.0179C0.333496 31.0636 9.2878 40.0179 20.3335 40.0179Z" fill="url(#g_logo-bitcoin-sv0)"/>
    <path d="M24.3333 20.1089H12.0605V11.9271H24.3333C26.5933 11.9271 28.4242 13.758 28.4242 16.018C28.4242 18.278 26.5933 20.1089 24.3333 20.1089Z" stroke="white" stroke-width="2" stroke-miterlimit="10"/>
    <path d="M24.3333 28.2906H12.0605V20.1088H24.3333C26.5933 20.1088 28.4242 21.9397 28.4242 24.1997C28.4242 26.4597 26.5933 28.2906 24.3333 28.2906Z" stroke="white" stroke-width="2" stroke-miterlimit="10"/>
    <path d="M19.4246 8.19977L17.6064 11.8361" stroke="white" stroke-width="2" stroke-miterlimit="10"/>
    <path d="M23.0609 8.19977L21.2427 11.8361" stroke="white" stroke-width="2" stroke-miterlimit="10"/>
    <path d="M19.4246 28.1998L17.6064 31.8361" stroke="white" stroke-width="2" stroke-miterlimit="10"/>
    <path d="M23.0609 28.1998L21.2427 31.8361" stroke="white" stroke-width="2" stroke-miterlimit="10"/>
    <linearGradient id="g_logo-bitcoin-sv0" x1="9.9335" y1="4.33878" x2="24.2536" y2="49.6628" gradientUnits="userSpaceOnUse">
        <stop stop-color="#FF7337"/>
        <stop offset="1" stop-color="#FFC700"/>
    </linearGradient>
</svg>
